<svg width="293" height="116" viewBox="0 0 293 116" fill="none" xmlns="http://www.w3.org/2000/svg">
<g filter="url(#filter0_dd_801_81)">
<path d="M72.7433 86.6077C69.1248 84.6835 64.0454 83.104 58.0537 82.0399H39.6269L37.4106 96.6495L39.6269 107.361C61.6697 107.361 78.937 101.465 78.937 93.9376C78.937 91.2972 76.7952 88.7626 72.7433 86.6077Z" fill="#9DA394"/>
<path d="M25.4463 82.0399C19.58 83.1041 14.6068 84.6835 11.064 86.6077C7.09699 88.7625 5 91.2972 5 93.9376C5 101.465 21.9059 107.361 43.4879 107.361V82.0399H25.4463Z" fill="#DFE1DC"/>
</g>
<g filter="url(#filter1_d_801_81)">
<path d="M43.9946 0L41.7988 33.4579L43.9946 94.0273L71.5337 66.4882C78.8903 59.1321 82.9418 49.3511 82.9418 38.9476C82.942 17.4716 65.4702 0 43.9946 0Z" fill="#296998"/>
</g>
<g filter="url(#filter2_d_801_81)">
<path d="M5.04688 38.9474C5.04688 49.3513 9.09879 59.1325 16.4558 66.4887L43.9943 94.0271V0C22.5187 0 5.04688 17.4716 5.04688 38.9474Z" fill="#49A5E8"/>
</g>
<path d="M64.5476 18.3946C59.0576 12.9046 51.7585 9.88123 43.9946 9.88123L41.7988 33.458L43.9946 68.0138C51.7585 68.0138 59.0576 64.9904 64.5476 59.5004C70.0375 54.0105 73.0609 46.7114 73.0609 38.9475C73.0609 31.1836 70.0375 23.8845 64.5476 18.3946Z" fill="#173959"/>
<path d="M23.4411 18.3946C17.9511 23.8845 14.9277 31.1836 14.9277 38.9475C14.9277 46.7114 17.9511 54.0105 23.4411 59.5004C28.931 64.9904 36.2301 68.0138 43.994 68.0138V9.88123C36.2301 9.88123 28.931 12.9046 23.4411 18.3946Z" fill="#6E8BC6"/>
<path d="M66.4735 38.9474C66.4735 26.5325 56.4093 16.4685 43.9946 16.4685L41.7988 54.8456H59.8861C63.956 50.7775 66.4735 45.1564 66.4735 38.9474Z" fill="#D5B4DB"/>
<path d="M21.5151 38.9474C21.5151 45.1564 24.0326 50.7775 28.1025 54.8456H43.994V16.4685C31.5794 16.4685 21.5151 26.5325 21.5151 38.9474Z" fill="#E6E8E3"/>
<path d="M43.9946 25.3865L41.7988 35.6536L59.8861 44.7091V36.6378L43.9946 25.3865Z" fill="#36101F"/>
<path d="M28.1025 36.6378V44.7091L43.994 35.6536V25.3865L28.1025 36.6378Z" fill="#E12727"/>
<path d="M43.9946 33.458L41.7988 47.4422L43.9946 61.4264C50.2002 61.4264 55.8184 58.9117 59.8861 54.846V44.7095L43.9946 33.458Z" fill="#E1AEF9"/>
<path d="M28.1025 44.7093V54.8458C32.17 58.9115 37.7884 61.4262 43.994 61.4262V33.458L28.1025 44.7093Z" fill="#FFF5F5"/>
<path d="M124.341 70.6332V33.452H137.594C140.486 33.452 142.883 33.9784 144.783 35.0314C146.683 36.0844 148.105 37.5247 149.049 39.3523C149.994 41.1678 150.466 43.2133 150.466 45.4887C150.466 47.7762 149.987 49.8337 149.031 51.6613C148.087 53.4768 146.659 54.9171 144.747 55.9822C142.847 57.0352 140.456 57.5617 137.576 57.5617H128.462V52.8051H137.067C138.895 52.8051 140.377 52.4904 141.515 51.861C142.653 51.2196 143.488 50.3481 144.021 49.2467C144.553 48.1453 144.819 46.8927 144.819 45.4887C144.819 44.0847 144.553 42.8381 144.021 41.7488C143.488 40.6595 142.647 39.8062 141.497 39.1889C140.359 38.5716 138.859 38.263 136.995 38.263H129.951V70.6332H124.341ZM156.906 70.6332V42.7473H162.153V47.1771H162.443C162.952 45.6763 163.847 44.4962 165.13 43.6369C166.425 42.7654 167.89 42.3297 169.524 42.3297C169.863 42.3297 170.262 42.3418 170.722 42.366C171.194 42.3902 171.563 42.4205 171.829 42.4568V47.6491C171.612 47.5886 171.224 47.522 170.667 47.4494C170.111 47.3647 169.554 47.3223 168.997 47.3223C167.714 47.3223 166.57 47.5946 165.566 48.1393C164.573 48.6718 163.787 49.4162 163.206 50.3723C162.625 51.3164 162.334 52.3936 162.334 53.6039V70.6332H156.906ZM187.275 71.196C184.66 71.196 182.379 70.5969 180.43 69.3987C178.482 68.2005 176.969 66.5242 175.892 64.3698C174.814 62.2154 174.276 59.6979 174.276 56.8173C174.276 53.9247 174.814 51.3951 175.892 49.2286C176.969 47.0621 178.482 45.3797 180.43 44.1815C182.379 42.9833 184.66 42.3842 187.275 42.3842C189.889 42.3842 192.17 42.9833 194.119 44.1815C196.068 45.3797 197.581 47.0621 198.658 49.2286C199.735 51.3951 200.274 53.9247 200.274 56.8173C200.274 59.6979 199.735 62.2154 198.658 64.3698C197.581 66.5242 196.068 68.2005 194.119 69.3987C192.17 70.5969 189.889 71.196 187.275 71.196ZM187.293 66.6392C188.987 66.6392 190.391 66.1913 191.505 65.2957C192.618 64.4 193.441 63.2079 193.974 61.7192C194.518 60.2305 194.791 58.5905 194.791 56.7992C194.791 55.02 194.518 53.3861 193.974 51.8974C193.441 50.3966 192.618 49.1923 191.505 48.2845C190.391 47.3768 188.987 46.9229 187.293 46.9229C185.586 46.9229 184.17 47.3768 183.045 48.2845C181.931 49.1923 181.102 50.3966 180.557 51.8974C180.025 53.3861 179.759 55.02 179.759 56.7992C179.759 58.5905 180.025 60.2305 180.557 61.7192C181.102 63.2079 181.931 64.4 183.045 65.2957C184.17 66.1913 185.586 66.6392 187.293 66.6392ZM206.333 81.0905V42.7473H211.634V47.2679H212.088C212.403 46.6869 212.856 46.0152 213.45 45.2527C214.043 44.4901 214.866 43.8245 215.919 43.2556C216.972 42.6747 218.363 42.3842 220.094 42.3842C222.345 42.3842 224.355 42.953 226.122 44.0907C227.889 45.2285 229.275 46.8684 230.279 49.0107C231.296 51.153 231.804 53.731 231.804 56.7447C231.804 59.7584 231.302 62.3425 230.297 64.4969C229.293 66.6392 227.913 68.2913 226.158 69.4532C224.403 70.603 222.4 71.1779 220.149 71.1779C218.454 71.1779 217.068 70.8935 215.991 70.3246C214.926 69.7558 214.091 69.0901 213.486 68.3276C212.881 67.5651 212.415 66.8873 212.088 66.2942H211.761V81.0905H206.333ZM211.652 56.6903C211.652 58.651 211.937 60.3697 212.505 61.8463C213.074 63.3229 213.897 64.4787 214.975 65.3138C216.052 66.1369 217.371 66.5484 218.932 66.5484C220.554 66.5484 221.91 66.1187 222.999 65.2594C224.088 64.3879 224.911 63.2079 225.468 61.7192C226.037 60.2305 226.321 58.5542 226.321 56.6903C226.321 54.8506 226.043 53.1985 225.486 51.734C224.942 50.2695 224.119 49.1136 223.017 48.2664C221.928 47.4191 220.566 46.9955 218.932 46.9955C217.359 46.9955 216.028 47.401 214.938 48.2119C213.861 49.0228 213.044 50.1545 212.487 51.6069C211.931 53.0593 211.652 54.7537 211.652 56.6903ZM237.886 70.6332V42.7473H243.314V70.6332H237.886ZM240.627 38.4446C239.683 38.4446 238.872 38.1299 238.195 37.5005C237.529 36.859 237.196 36.0965 237.196 35.213C237.196 34.3173 237.529 33.5548 238.195 32.9255C238.872 32.284 239.683 31.9633 240.627 31.9633C241.572 31.9633 242.376 32.284 243.042 32.9255C243.72 33.5548 244.059 34.3173 244.059 35.213C244.059 36.0965 243.72 36.859 243.042 37.5005C242.376 38.1299 241.572 38.4446 240.627 38.4446ZM250.617 70.6332V42.7473H256.046V70.6332H250.617ZM253.359 38.4446C252.415 38.4446 251.604 38.1299 250.926 37.5005C250.26 36.859 249.927 36.0965 249.927 35.213C249.927 34.3173 250.26 33.5548 250.926 32.9255C251.604 32.284 252.415 31.9633 253.359 31.9633C254.303 31.9633 255.108 32.284 255.773 32.9255C256.451 33.5548 256.79 34.3173 256.79 35.213C256.79 36.0965 256.451 36.859 255.773 37.5005C255.108 38.1299 254.303 38.4446 253.359 38.4446ZM284.245 49.5554L279.325 50.4268C279.119 49.7974 278.792 49.1983 278.344 48.6295C277.909 48.0606 277.316 47.5946 276.565 47.2315C275.815 46.8684 274.877 46.6869 273.751 46.6869C272.214 46.6869 270.931 47.0318 269.902 47.7217C268.873 48.3995 268.359 49.277 268.359 50.3542C268.359 51.2861 268.704 52.0365 269.394 52.6054C270.084 53.1743 271.197 53.6402 272.734 54.0033L277.164 55.02C279.73 55.6131 281.642 56.5269 282.901 57.7614C284.16 58.9959 284.789 60.5996 284.789 62.5725C284.789 64.2427 284.305 65.7314 283.337 67.0386C282.381 68.3336 281.043 69.3503 279.325 70.0886C277.618 70.8269 275.639 71.196 273.388 71.196C270.265 71.196 267.718 70.5304 265.745 69.199C263.772 67.8555 262.562 65.9493 262.114 63.4802L267.361 62.6814C267.687 64.0491 268.359 65.0839 269.376 65.7859C270.392 66.4758 271.718 66.8207 273.352 66.8207C275.131 66.8207 276.553 66.4516 277.618 65.7133C278.683 64.9629 279.216 64.0491 279.216 62.9719C279.216 62.1004 278.889 61.3682 278.235 60.7751C277.594 60.1821 276.607 59.7342 275.276 59.4317L270.556 58.3968C267.954 57.8038 266.029 56.8597 264.783 55.5647C263.548 54.2696 262.931 52.6296 262.931 50.6447C262.931 48.9986 263.391 47.5583 264.311 46.3238C265.23 45.0893 266.501 44.1271 268.123 43.4372C269.745 42.7352 271.603 42.3842 273.697 42.3842C276.71 42.3842 279.083 43.0378 280.813 44.3449C282.544 45.64 283.688 47.3768 284.245 49.5554Z" fill="#212529"/>
<defs>
<filter id="filter0_dd_801_81" x="0.948647" y="82.0399" width="82.0397" height="33.4238" filterUnits="userSpaceOnUse" color-interpolation-filters="sRGB">
<feFlood flood-opacity="0" result="BackgroundImageFix"/>
<feColorMatrix in="SourceAlpha" type="matrix" values="0 0 0 0 0 0 0 0 0 0 0 0 0 0 0 0 0 0 127 0" result="hardAlpha"/>
<feOffset dy="4.05135"/>
<feGaussianBlur stdDeviation="2.02568"/>
<feColorMatrix type="matrix" values="0 0 0 0 0 0 0 0 0 0 0 0 0 0 0 0 0 0 0.25 0"/>
<feBlend mode="normal" in2="BackgroundImageFix" result="effect1_dropShadow_801_81"/>
<feColorMatrix in="SourceAlpha" type="matrix" values="0 0 0 0 0 0 0 0 0 0 0 0 0 0 0 0 0 0 127 0" result="hardAlpha"/>
<feOffset dy="4.05135"/>
<feGaussianBlur stdDeviation="2.02568"/>
<feColorMatrix type="matrix" values="0 0 0 0 0 0 0 0 0 0 0 0 0 0 0 0 0 0 0.25 0"/>
<feBlend mode="normal" in2="effect1_dropShadow_801_81" result="effect2_dropShadow_801_81"/>
<feBlend mode="normal" in="SourceGraphic" in2="effect2_dropShadow_801_81" result="shape"/>
</filter>
<filter id="filter1_d_801_81" x="37.7475" y="0" width="49.2458" height="102.13" filterUnits="userSpaceOnUse" color-interpolation-filters="sRGB">
<feFlood flood-opacity="0" result="BackgroundImageFix"/>
<feColorMatrix in="SourceAlpha" type="matrix" values="0 0 0 0 0 0 0 0 0 0 0 0 0 0 0 0 0 0 127 0" result="hardAlpha"/>
<feOffset dy="4.05135"/>
<feGaussianBlur stdDeviation="2.02568"/>
<feColorMatrix type="matrix" values="0 0 0 0 0 0 0 0 0 0 0 0 0 0 0 0 0 0 0.25 0"/>
<feBlend mode="normal" in2="BackgroundImageFix" result="effect1_dropShadow_801_81"/>
<feBlend mode="normal" in="SourceGraphic" in2="effect1_dropShadow_801_81" result="shape"/>
</filter>
<filter id="filter2_d_801_81" x="0.995522" y="0" width="47.05" height="102.13" filterUnits="userSpaceOnUse" color-interpolation-filters="sRGB">
<feFlood flood-opacity="0" result="BackgroundImageFix"/>
<feColorMatrix in="SourceAlpha" type="matrix" values="0 0 0 0 0 0 0 0 0 0 0 0 0 0 0 0 0 0 127 0" result="hardAlpha"/>
<feOffset dy="4.05135"/>
<feGaussianBlur stdDeviation="2.02568"/>
<feColorMatrix type="matrix" values="0 0 0 0 0 0 0 0 0 0 0 0 0 0 0 0 0 0 0.25 0"/>
<feBlend mode="normal" in2="BackgroundImageFix" result="effect1_dropShadow_801_81"/>
<feBlend mode="normal" in="SourceGraphic" in2="effect1_dropShadow_801_81" result="shape"/>
</filter>
</defs>
</svg>
