<svg width="32" height="32" viewBox="0 0 32 32" fill="none" xmlns="http://www.w3.org/2000/svg">
<path d="M13.9973 24.0014L9.05733 19.0614L10.944 17.1747L14.0027 20.2334L21.06 13.176L22.9467 15.0627L13.9973 24.0014ZM28 8.00002V25.3334C28 26.0406 27.719 26.7189 27.219 27.219C26.7189 27.7191 26.0406 28 25.3333 28H6.66667C5.95942 28 5.28115 27.7191 4.78105 27.219C4.28095 26.7189 4 26.0406 4 25.3334V8.00002C4 7.29278 4.28095 6.6145 4.78105 6.1144C5.28115 5.61431 5.95942 5.33335 6.66667 5.33335H8V2.66669H10.6667V5.33335H21.3333V2.66669H24V5.33335H25.3333C26.0406 5.33335 26.7189 5.61431 27.219 6.1144C27.719 6.6145 28 7.29278 28 8.00002ZM25.3333 10.6667H6.66667V25.3334H25.3333V10.6667Z" fill="#49A5E8"/>
</svg>
