<svg width="20" height="20" viewBox="0 0 20 20" fill="none" xmlns="http://www.w3.org/2000/svg">
<path d="M13.78 20V12.26H16.3722L16.76 9.25111H13.78V7.33111C13.78 6.46 14.0222 5.86556 15.2711 5.86556H16.8644V3.17444C16.0931 3.09261 15.3179 3.05292 14.5422 3.05556C12.2456 3.05556 10.6733 4.45778 10.6733 7.03333V9.25111H8.07556V12.26H10.6733V20H1.11111C0.816426 20 0.533811 19.8829 0.325437 19.6746C0.117063 19.4662 0 19.1836 0 18.8889V1.11111C0 0.816426 0.117063 0.533811 0.325437 0.325437C0.533811 0.117063 0.816426 0 1.11111 0H18.8889C19.1836 0 19.4662 0.117063 19.6746 0.325437C19.8829 0.533811 20 0.816426 20 1.11111V18.8889C20 19.1836 19.8829 19.4662 19.6746 19.6746C19.4662 19.8829 19.1836 20 18.8889 20H13.78Z" fill="white"/>
</svg>
