<svg width="16" height="16" viewBox="0 0 16 16" fill="none" xmlns="http://www.w3.org/2000/svg">
<path d="M1.4994 15.2918C1.38957 15.2916 1.28097 15.2685 1.18052 15.2241C1.08008 15.1797 0.989974 15.1148 0.915944 15.0337C0.840577 14.9532 0.783066 14.8578 0.747184 14.7535C0.711301 14.6493 0.697859 14.5386 0.707736 14.4288L0.901694 12.2961L9.86178 3.33918L12.6619 6.13852L3.70419 15.0946L1.57144 15.2886C1.54749 15.2908 1.52345 15.2919 1.4994 15.2918ZM13.2208 5.57881L10.4215 2.77947L12.1006 1.10035C12.1741 1.02674 12.2614 0.96835 12.3576 0.92851C12.4537 0.88867 12.5567 0.868164 12.6607 0.868164C12.7648 0.868164 12.8678 0.88867 12.9639 0.92851C13.06 0.96835 13.1473 1.02674 13.2208 1.10035L14.8999 2.77947C14.9736 2.853 15.0319 2.94031 15.0718 3.03642C15.1116 3.13252 15.1321 3.23554 15.1321 3.33958C15.1321 3.44362 15.1116 3.54663 15.0718 3.64274C15.0319 3.73885 14.9736 3.82616 14.8999 3.89968L13.2216 5.57802L13.2208 5.57881Z" fill="#0B194A"/>
</svg>
