<svg width="18" height="13" viewBox="0 0 18 13" fill="none" xmlns="http://www.w3.org/2000/svg">
<path d="M7.28161 5.9425L15.185 0L17.2963 1.58741L15.8888 2.64569L18 4.2331L14.4813 6.87953L12.3701 5.29212L9.39383 7.52991C9.94185 8.32272 10.0947 9.23675 9.82471 10.1069C9.55474 10.977 8.87977 11.7458 7.92174 12.2745C6.96372 12.8031 5.78583 13.0567 4.60088 12.9894C3.41593 12.9221 2.30207 12.5383 1.46055 11.9075C0.618599 11.2754 0.10563 10.4375 0.0145971 9.54558C-0.0764353 8.65365 0.260492 7.7667 0.964323 7.04547C1.66815 6.32424 2.69232 5.81645 3.85123 5.61411C5.01014 5.41177 6.22711 5.52827 7.28161 5.9425ZM6.38675 10.3193C6.57689 10.1812 6.72855 10.016 6.83289 9.83342C6.93722 9.6508 6.99214 9.45439 6.99444 9.25563C6.99673 9.05688 6.94636 8.85978 6.84626 8.67582C6.74617 8.49186 6.59834 8.32474 6.41142 8.18419C6.2245 8.04365 6.00223 7.9325 5.75757 7.85724C5.51291 7.78198 5.25076 7.74411 4.98643 7.74583C4.72209 7.74756 4.46086 7.78885 4.21798 7.8673C3.97509 7.94575 3.75542 8.05978 3.57178 8.20275C3.20914 8.48506 3.00848 8.86316 3.01301 9.25563C3.01755 9.6481 3.22692 10.0235 3.59603 10.3011C3.96513 10.5786 4.46445 10.736 4.98643 10.7394C5.5084 10.7428 6.01128 10.592 6.38675 10.3193Z" fill="#B8B8B8"/>
</svg>
