<svg width="23" height="21" viewBox="0 0 23 21" fill="none" xmlns="http://www.w3.org/2000/svg">
<mask id="path-1-inside-1_818_488" fill="white">
<path fill-rule="evenodd" clip-rule="evenodd" d="M17.7261 3.5H20.7C21.9684 3.5 23 4.5465 23 5.83333V18.6667C23 19.9535 21.9684 21 20.7 21H2.3C1.03155 21 0 19.9535 0 18.6667V5.83333C0 4.5465 1.03155 3.5 2.3 3.5H5.2739L8.38695 0.341834C8.49356 0.233285 8.62028 0.147199 8.75982 0.0885329C8.89936 0.0298668 9.04895 -0.000221024 9.2 1.22229e-06H13.8C13.951 -0.000221024 14.1006 0.0298668 14.2402 0.0885329C14.3797 0.147199 14.5064 0.233285 14.613 0.341834L17.7261 3.5ZM5.75 11.6667C5.75 14.8283 8.3835 17.5 11.5 17.5C14.6165 17.5 17.25 14.8283 17.25 11.6667C17.25 8.505 14.6165 5.83333 11.5 5.83333C8.3835 5.83333 5.75 8.505 5.75 11.6667ZM8.13379 11.6198C8.13379 9.7228 9.73958 8.1198 11.6399 8.1198C13.5402 8.1198 15.146 9.7228 15.146 11.6198C15.146 13.5168 13.5402 15.1198 11.6399 15.1198C9.73958 15.1198 8.13379 13.5168 8.13379 11.6198Z"/>
</mask>
<path fill-rule="evenodd" clip-rule="evenodd" d="M17.7261 3.5H20.7C21.9684 3.5 23 4.5465 23 5.83333V18.6667C23 19.9535 21.9684 21 20.7 21H2.3C1.03155 21 0 19.9535 0 18.6667V5.83333C0 4.5465 1.03155 3.5 2.3 3.5H5.2739L8.38695 0.341834C8.49356 0.233285 8.62028 0.147199 8.75982 0.0885329C8.89936 0.0298668 9.04895 -0.000221024 9.2 1.22229e-06H13.8C13.951 -0.000221024 14.1006 0.0298668 14.2402 0.0885329C14.3797 0.147199 14.5064 0.233285 14.613 0.341834L17.7261 3.5ZM5.75 11.6667C5.75 14.8283 8.3835 17.5 11.5 17.5C14.6165 17.5 17.25 14.8283 17.25 11.6667C17.25 8.505 14.6165 5.83333 11.5 5.83333C8.3835 5.83333 5.75 8.505 5.75 11.6667ZM8.13379 11.6198C8.13379 9.7228 9.73958 8.1198 11.6399 8.1198C13.5402 8.1198 15.146 9.7228 15.146 11.6198C15.146 13.5168 13.5402 15.1198 11.6399 15.1198C9.73958 15.1198 8.13379 13.5168 8.13379 11.6198Z" fill="#0B194A"/>
<path d="M17.7261 3.5L17.3344 3.88611L17.496 4.05001H17.7261V3.5ZM5.2739 3.5V4.05001H5.50404L5.66561 3.88611L5.2739 3.5ZM8.38695 0.341834L8.77866 0.727944L8.77936 0.727232L8.38695 0.341834ZM8.75982 0.0885329L8.97299 0.595555L8.75982 0.0885329ZM9.2 1.22229e-06L9.19919 0.550013H9.2V1.22229e-06ZM13.8 1.22229e-06V0.550014L13.8008 0.550013L13.8 1.22229e-06ZM14.2402 0.0885329L14.027 0.595555L14.2402 0.0885329ZM14.613 0.341834L14.2206 0.727233L14.2213 0.727944L14.613 0.341834ZM20.7 2.94999H17.7261V4.05001H20.7V2.94999ZM23.55 5.83333C23.55 4.25022 22.2796 2.94999 20.7 2.94999V4.05001C21.6573 4.05001 22.45 4.84278 22.45 5.83333H23.55ZM23.55 18.6667V5.83333H22.45V18.6667H23.55ZM20.7 21.55C22.2796 21.55 23.55 20.2498 23.55 18.6667H22.45C22.45 19.6572 21.6573 20.45 20.7 20.45V21.55ZM2.3 21.55H20.7V20.45H2.3V21.55ZM-0.550012 18.6667C-0.550012 20.2498 0.720352 21.55 2.3 21.55V20.45C1.34275 20.45 0.550012 19.6572 0.550012 18.6667H-0.550012ZM-0.550012 5.83333V18.6667H0.550012V5.83333H-0.550012ZM2.3 2.94999C0.720353 2.94999 -0.550012 4.25023 -0.550012 5.83333H0.550012C0.550012 4.84278 1.34275 4.05001 2.3 4.05001V2.94999ZM5.2739 2.94999H2.3V4.05001H5.2739V2.94999ZM7.99525 -0.0442748L4.88219 3.11389L5.66561 3.88611L8.77866 0.727944L7.99525 -0.0442748ZM8.54665 -0.41849C8.33954 -0.331414 8.15198 -0.203858 7.99455 -0.0435632L8.77936 0.727232C8.83514 0.670428 8.90102 0.625812 8.97299 0.595555L8.54665 -0.41849ZM9.20081 -0.55001C8.97612 -0.550341 8.75378 -0.505573 8.54665 -0.418489L8.97299 0.595555C9.04494 0.565306 9.12179 0.549899 9.19919 0.550013L9.20081 -0.55001ZM13.8 -0.550011H9.2V0.550013H13.8V-0.550011ZM14.4533 -0.418489C14.2462 -0.505573 14.0239 -0.550341 13.7992 -0.55001L13.8008 0.550013C13.8782 0.549899 13.9551 0.565307 14.027 0.595555L14.4533 -0.418489ZM15.0055 -0.0435632C14.848 -0.203859 14.6605 -0.331414 14.4533 -0.41849L14.027 0.595555C14.099 0.625812 14.1649 0.670429 14.2206 0.727232L15.0055 -0.0435632ZM18.1178 3.11389L15.0048 -0.0442747L14.2213 0.727944L17.3344 3.88611L18.1178 3.11389ZM11.5 16.95C8.6947 16.95 6.30001 14.5321 6.30001 11.6667H5.19999C5.19999 15.1246 8.0723 18.05 11.5 18.05V16.95ZM16.7 11.6667C16.7 14.5321 14.3053 16.95 11.5 16.95V18.05C14.9277 18.05 17.8 15.1246 17.8 11.6667H16.7ZM11.5 6.38335C14.3053 6.38335 16.7 8.80128 16.7 11.6667H17.8C17.8 8.20872 14.9277 5.28332 11.5 5.28332V6.38335ZM6.30001 11.6667C6.30001 8.80128 8.6947 6.38335 11.5 6.38335V5.28332C8.0723 5.28332 5.19999 8.20872 5.19999 11.6667H6.30001ZM11.6399 7.56978C9.43672 7.56978 7.58378 9.41813 7.58378 11.6198H8.6838C8.6838 10.0275 10.0424 8.66981 11.6399 8.66981V7.56978ZM15.696 11.6198C15.696 9.41813 13.8431 7.56978 11.6399 7.56978V8.66981C13.2373 8.66981 14.596 10.0275 14.596 11.6198H15.696ZM11.6399 15.6698C13.8431 15.6698 15.696 13.8215 15.696 11.6198H14.596C14.596 13.2121 13.2373 14.5698 11.6399 14.5698V15.6698ZM7.58378 11.6198C7.58378 13.8215 9.43672 15.6698 11.6399 15.6698V14.5698C10.0424 14.5698 8.6838 13.2121 8.6838 11.6198H7.58378Z" fill="#0B194A" mask="url(#path-1-inside-1_818_488)"/>
</svg>
