<svg width="173" height="71" viewBox="0 0 173 71" fill="none" xmlns="http://www.w3.org/2000/svg">
<g filter="url(#filter0_d_713_81)">
<g filter="url(#filter1_dd_713_81)">
<path d="M43.7522 50.822C41.6288 49.6929 38.6482 48.766 35.1323 48.1416H24.3193L23.0188 56.7146L24.3193 63.0001C37.2542 63.0001 47.3867 59.5401 47.3867 55.1232C47.3867 53.5738 46.1299 52.0865 43.7522 50.822Z" fill="#9DA394"/>
<path d="M15.998 48.1416C12.5556 48.766 9.63731 49.6929 7.55838 50.822C5.23052 52.0865 4 53.5738 4 55.1232C4 59.5401 13.9205 63.0001 26.5849 63.0001V48.1416H15.998Z" fill="#DFE1DC"/>
</g>
<g filter="url(#filter2_d_713_81)">
<path d="M26.882 0L25.5935 19.6333L26.882 55.1757L43.0421 39.0157C47.359 34.699 49.7364 28.9595 49.7364 22.8547C49.7366 10.2524 39.484 0 26.882 0Z" fill="#296998"/>
</g>
<g filter="url(#filter3_d_713_81)">
<path d="M4.02734 22.8545C4.02734 28.9596 6.40503 34.6993 10.7222 39.0159L26.8819 55.1756V0C14.2799 0 4.02734 10.2524 4.02734 22.8545Z" fill="#49A5E8"/>
</g>
<path d="M38.9426 10.794C35.7211 7.57249 31.4379 5.79834 26.882 5.79834L25.5935 19.6333L26.882 39.9108C31.4379 39.9108 35.7211 38.1367 38.9426 34.9152C42.1641 31.6936 43.9383 27.4105 43.9383 22.8546C43.9383 18.2987 42.1641 14.0155 38.9426 10.794Z" fill="#173959"/>
<path d="M14.8214 10.794C11.5998 14.0155 9.82568 18.2987 9.82568 22.8546C9.82568 27.4105 11.5998 31.6936 14.8214 34.9152C18.0429 38.1367 22.326 39.9108 26.8819 39.9108V5.79834C22.326 5.79834 18.0429 7.57249 14.8214 10.794Z" fill="#6E8BC6"/>
<path d="M40.0727 22.8548C40.0727 15.5697 34.167 9.66406 26.882 9.66406L25.5935 32.184H36.2072C38.5955 29.7968 40.0727 26.4983 40.0727 22.8548Z" fill="#D5B4DB"/>
<path d="M13.6914 22.8548C13.6914 26.4983 15.1687 29.7968 17.5569 32.184H26.8821V9.66406C19.5972 9.66406 13.6914 15.5697 13.6914 22.8548Z" fill="#E6E8E3"/>
<path d="M26.882 14.897L25.5935 20.9218L36.2072 26.2356V21.4993L26.882 14.897Z" fill="#36101F"/>
<path d="M17.5569 21.4993V26.2356L26.8821 20.9218V14.897L17.5569 21.4993Z" fill="#E12727"/>
<path d="M26.882 19.6333L25.5935 27.8393L26.882 36.0453C30.5235 36.0453 33.8202 34.5697 36.2072 32.1839V26.2358L26.882 19.6333Z" fill="#E1AEF9"/>
<path d="M17.5569 26.2356V32.1838C19.9437 34.5696 23.2406 36.0452 26.8821 36.0452V19.6333L17.5569 26.2356Z" fill="#FFF5F5"/>
<path d="M74.0298 41V19.1818H81.8068C83.5043 19.1818 84.9105 19.4908 86.0256 20.1087C87.1406 20.7266 87.9751 21.5717 88.5291 22.6442C89.0831 23.7095 89.3601 24.9098 89.3601 26.245C89.3601 27.5874 89.0795 28.7947 88.5185 29.8672C87.9645 30.9325 87.1264 31.7777 86.0043 32.4027C84.8892 33.0206 83.4865 33.3295 81.7962 33.3295H76.4482V30.5384H81.4979C82.5703 30.5384 83.4403 30.3537 84.108 29.9844C84.7756 29.608 85.2656 29.0966 85.5781 28.4503C85.8906 27.804 86.0469 27.0689 86.0469 26.245C86.0469 25.4212 85.8906 24.6896 85.5781 24.0504C85.2656 23.4112 84.772 22.9105 84.0973 22.5483C83.4297 22.1861 82.549 22.005 81.4553 22.005H77.3217V41H74.0298ZM93.1394 41V24.6364H96.2182V27.2358H96.3887C96.687 26.3551 97.2125 25.6626 97.9654 25.1584C98.7253 24.647 99.5847 24.3913 100.544 24.3913C100.742 24.3913 100.977 24.3984 101.247 24.4126C101.524 24.4268 101.74 24.4446 101.896 24.4659V27.5128C101.769 27.4773 101.541 27.4382 101.215 27.3956C100.888 27.3459 100.561 27.321 100.235 27.321C99.4817 27.321 98.8105 27.4808 98.2211 27.8004C97.6387 28.1129 97.177 28.5497 96.8361 29.1108C96.4952 29.6648 96.3248 30.2969 96.3248 31.0071V41H93.1394ZM110.96 41.3303C109.426 41.3303 108.087 40.9787 106.944 40.2756C105.8 39.5724 104.912 38.5888 104.28 37.3246C103.648 36.0604 103.332 34.5831 103.332 32.8928C103.332 31.1953 103.648 29.7109 104.28 28.4396C104.912 27.1683 105.8 26.1811 106.944 25.478C108.087 24.7749 109.426 24.4233 110.96 24.4233C112.494 24.4233 113.833 24.7749 114.976 25.478C116.12 26.1811 117.007 27.1683 117.64 28.4396C118.272 29.7109 118.588 31.1953 118.588 32.8928C118.588 34.5831 118.272 36.0604 117.64 37.3246C117.007 38.5888 116.12 39.5724 114.976 40.2756C113.833 40.9787 112.494 41.3303 110.96 41.3303ZM110.971 38.6562C111.965 38.6562 112.789 38.3935 113.442 37.8679C114.096 37.3423 114.578 36.6428 114.891 35.7692C115.211 34.8956 115.37 33.9332 115.37 32.8821C115.37 31.8381 115.211 30.8793 114.891 30.0057C114.578 29.125 114.096 28.4183 113.442 27.8857C112.789 27.353 111.965 27.0866 110.971 27.0866C109.969 27.0866 109.138 27.353 108.478 27.8857C107.824 28.4183 107.338 29.125 107.018 30.0057C106.706 30.8793 106.549 31.8381 106.549 32.8821C106.549 33.9332 106.706 34.8956 107.018 35.7692C107.338 36.6428 107.824 37.3423 108.478 37.8679C109.138 38.3935 109.969 38.6562 110.971 38.6562ZM122.143 47.1364V24.6364H125.254V27.2891H125.52C125.705 26.9482 125.971 26.554 126.319 26.1065C126.667 25.6591 127.15 25.2685 127.768 24.9347C128.386 24.5938 129.203 24.4233 130.219 24.4233C131.54 24.4233 132.719 24.7571 133.756 25.4247C134.792 26.0923 135.606 27.0547 136.195 28.3118C136.792 29.5689 137.09 31.0817 137.09 32.8501C137.09 34.6186 136.795 36.1349 136.206 37.3991C135.616 38.6562 134.807 39.6257 133.777 40.3075C132.747 40.9822 131.572 41.3196 130.251 41.3196C129.256 41.3196 128.443 41.1527 127.811 40.8189C127.186 40.4851 126.696 40.0945 126.341 39.647C125.986 39.1996 125.712 38.8018 125.52 38.4538H125.329V47.1364H122.143ZM125.265 32.8182C125.265 33.9687 125.432 34.9773 125.765 35.8438C126.099 36.7102 126.582 37.3885 127.214 37.8786C127.846 38.3615 128.621 38.603 129.537 38.603C130.488 38.603 131.284 38.3509 131.923 37.8466C132.562 37.3352 133.045 36.6428 133.372 35.7692C133.706 34.8956 133.873 33.9119 133.873 32.8182C133.873 31.7386 133.709 30.7692 133.383 29.9098C133.063 29.0504 132.58 28.3722 131.934 27.875C131.295 27.3778 130.496 27.1293 129.537 27.1293C128.613 27.1293 127.832 27.3672 127.193 27.843C126.561 28.3189 126.081 28.983 125.755 29.8352C125.428 30.6875 125.265 31.6818 125.265 32.8182ZM140.659 41V24.6364H143.844V41H140.659ZM142.268 22.1115C141.714 22.1115 141.238 21.9268 140.84 21.5575C140.449 21.1811 140.254 20.7337 140.254 20.2152C140.254 19.6896 140.449 19.2422 140.84 18.8729C141.238 18.4964 141.714 18.3082 142.268 18.3082C142.822 18.3082 143.294 18.4964 143.684 18.8729C144.082 19.2422 144.281 19.6896 144.281 20.2152C144.281 20.7337 144.082 21.1811 143.684 21.5575C143.294 21.9268 142.822 22.1115 142.268 22.1115ZM148.13 41V24.6364H151.315V41H148.13ZM149.738 22.1115C149.184 22.1115 148.708 21.9268 148.311 21.5575C147.92 21.1811 147.725 20.7337 147.725 20.2152C147.725 19.6896 147.92 19.2422 148.311 18.8729C148.708 18.4964 149.184 18.3082 149.738 18.3082C150.292 18.3082 150.765 18.4964 151.155 18.8729C151.553 19.2422 151.752 19.6896 151.752 20.2152C151.752 20.7337 151.553 21.1811 151.155 21.5575C150.765 21.9268 150.292 22.1115 149.738 22.1115ZM167.862 28.6314L164.975 29.1428C164.855 28.7734 164.663 28.4219 164.4 28.0881C164.144 27.7543 163.796 27.4808 163.356 27.2678C162.916 27.0547 162.365 26.9482 161.705 26.9482C160.803 26.9482 160.05 27.1506 159.446 27.5554C158.843 27.9531 158.541 28.468 158.541 29.1001C158.541 29.647 158.743 30.0874 159.148 30.4212C159.553 30.755 160.206 31.0284 161.108 31.2415L163.708 31.8381C165.213 32.1861 166.335 32.7223 167.074 33.4467C167.813 34.1712 168.182 35.1122 168.182 36.2699C168.182 37.25 167.898 38.1236 167.33 38.8906C166.769 39.6506 165.984 40.2472 164.975 40.6804C163.974 41.1136 162.813 41.3303 161.492 41.3303C159.659 41.3303 158.164 40.9396 157.007 40.1584C155.849 39.37 155.139 38.2514 154.876 36.8026L157.955 36.3338C158.146 37.1364 158.541 37.7436 159.137 38.1555C159.734 38.5604 160.512 38.7628 161.47 38.7628C162.514 38.7628 163.349 38.5462 163.974 38.1129C164.599 37.6726 164.911 37.1364 164.911 36.5043C164.911 35.9929 164.72 35.5632 164.336 35.2152C163.96 34.8672 163.381 34.6044 162.6 34.4268L159.83 33.8196C158.303 33.4716 157.173 32.9176 156.442 32.1577C155.718 31.3977 155.355 30.4354 155.355 29.2706C155.355 28.3047 155.625 27.4595 156.165 26.7351C156.705 26.0107 157.45 25.446 158.402 25.0412C159.354 24.6293 160.444 24.4233 161.673 24.4233C163.441 24.4233 164.833 24.8068 165.849 25.5739C166.865 26.3338 167.536 27.353 167.862 28.6314Z" fill="white"/>
</g>
<defs>
<filter id="filter0_d_713_81" x="0" y="0" width="172.182" height="71" filterUnits="userSpaceOnUse" color-interpolation-filters="sRGB">
<feFlood flood-opacity="0" result="BackgroundImageFix"/>
<feColorMatrix in="SourceAlpha" type="matrix" values="0 0 0 0 0 0 0 0 0 0 0 0 0 0 0 0 0 0 127 0" result="hardAlpha"/>
<feOffset dy="4"/>
<feGaussianBlur stdDeviation="2"/>
<feComposite in2="hardAlpha" operator="out"/>
<feColorMatrix type="matrix" values="0 0 0 0 0 0 0 0 0 0 0 0 0 0 0 0 0 0 0.25 0"/>
<feBlend mode="normal" in2="BackgroundImageFix" result="effect1_dropShadow_713_81"/>
<feBlend mode="normal" in="SourceGraphic" in2="effect1_dropShadow_713_81" result="shape"/>
</filter>
<filter id="filter1_dd_713_81" x="1.62264" y="48.1416" width="48.1414" height="19.6131" filterUnits="userSpaceOnUse" color-interpolation-filters="sRGB">
<feFlood flood-opacity="0" result="BackgroundImageFix"/>
<feColorMatrix in="SourceAlpha" type="matrix" values="0 0 0 0 0 0 0 0 0 0 0 0 0 0 0 0 0 0 127 0" result="hardAlpha"/>
<feOffset dy="2.37736"/>
<feGaussianBlur stdDeviation="1.18868"/>
<feColorMatrix type="matrix" values="0 0 0 0 0 0 0 0 0 0 0 0 0 0 0 0 0 0 0.25 0"/>
<feBlend mode="normal" in2="BackgroundImageFix" result="effect1_dropShadow_713_81"/>
<feColorMatrix in="SourceAlpha" type="matrix" values="0 0 0 0 0 0 0 0 0 0 0 0 0 0 0 0 0 0 127 0" result="hardAlpha"/>
<feOffset dy="2.37736"/>
<feGaussianBlur stdDeviation="1.18868"/>
<feColorMatrix type="matrix" values="0 0 0 0 0 0 0 0 0 0 0 0 0 0 0 0 0 0 0.25 0"/>
<feBlend mode="normal" in2="effect1_dropShadow_713_81" result="effect2_dropShadow_713_81"/>
<feBlend mode="normal" in="SourceGraphic" in2="effect2_dropShadow_713_81" result="shape"/>
</filter>
<filter id="filter2_d_713_81" x="23.2161" y="0" width="28.8975" height="59.9305" filterUnits="userSpaceOnUse" color-interpolation-filters="sRGB">
<feFlood flood-opacity="0" result="BackgroundImageFix"/>
<feColorMatrix in="SourceAlpha" type="matrix" values="0 0 0 0 0 0 0 0 0 0 0 0 0 0 0 0 0 0 127 0" result="hardAlpha"/>
<feOffset dy="2.37736"/>
<feGaussianBlur stdDeviation="1.18868"/>
<feColorMatrix type="matrix" values="0 0 0 0 0 0 0 0 0 0 0 0 0 0 0 0 0 0 0.25 0"/>
<feBlend mode="normal" in2="BackgroundImageFix" result="effect1_dropShadow_713_81"/>
<feBlend mode="normal" in="SourceGraphic" in2="effect1_dropShadow_713_81" result="shape"/>
</filter>
<filter id="filter3_d_713_81" x="1.64999" y="0" width="27.6092" height="59.9303" filterUnits="userSpaceOnUse" color-interpolation-filters="sRGB">
<feFlood flood-opacity="0" result="BackgroundImageFix"/>
<feColorMatrix in="SourceAlpha" type="matrix" values="0 0 0 0 0 0 0 0 0 0 0 0 0 0 0 0 0 0 127 0" result="hardAlpha"/>
<feOffset dy="2.37736"/>
<feGaussianBlur stdDeviation="1.18868"/>
<feColorMatrix type="matrix" values="0 0 0 0 0 0 0 0 0 0 0 0 0 0 0 0 0 0 0.25 0"/>
<feBlend mode="normal" in2="BackgroundImageFix" result="effect1_dropShadow_713_81"/>
<feBlend mode="normal" in="SourceGraphic" in2="effect1_dropShadow_713_81" result="shape"/>
</filter>
</defs>
</svg>
