<svg width="174" height="68" viewBox="0 0 174 68" fill="none" xmlns="http://www.w3.org/2000/svg">
<g filter="url(#filter0_dd_805_144)">
<path d="M43.1442 50.8219C41.0076 49.6928 38.0083 48.7659 34.4704 48.1415H23.5899L22.2812 56.7145L23.5899 63C36.6056 63 46.8015 59.54 46.8015 55.1231C46.8015 53.5737 45.5368 52.0864 43.1442 50.8219Z" fill="#9DA394"/>
<path d="M15.2165 48.1415C11.7526 48.7659 8.8161 49.6928 6.72418 50.8219C4.38177 52.0863 3.14355 53.5737 3.14355 55.1231C3.14355 59.54 13.126 63 25.8696 63V48.1415H15.2165Z" fill="#DFE1DC"/>
</g>
<g filter="url(#filter1_d_805_144)">
<path d="M26.1686 0L24.8721 19.6333L26.1686 55.1757L42.4297 39.0157C46.7736 34.699 49.1659 28.9595 49.1659 22.8547C49.166 10.2524 38.8494 0 26.1686 0Z" fill="#296998"/>
</g>
<g filter="url(#filter2_d_805_144)">
<path d="M3.17139 22.8545C3.17139 28.9596 5.56393 34.6993 9.90806 39.0159L26.1688 55.1756V0C13.488 0 3.17139 10.2524 3.17139 22.8545Z" fill="#49A5E8"/>
</g>
<path d="M38.3046 10.794C35.0629 7.57249 30.753 5.79834 26.1686 5.79834L24.8721 19.6333L26.1686 39.9108C30.753 39.9108 35.0629 38.1367 38.3046 34.9152C41.5462 31.6936 43.3315 27.4105 43.3315 22.8546C43.3315 18.2987 41.5462 14.0155 38.3046 10.794Z" fill="#173959"/>
<path d="M14.0323 10.794C10.7906 14.0155 9.00537 18.2987 9.00537 22.8546C9.00537 27.4105 10.7906 31.6936 14.0323 34.9152C17.2739 38.1367 21.5838 39.9108 26.1682 39.9108V5.79834C21.5838 5.79834 17.2739 7.57249 14.0323 10.794Z" fill="#6E8BC6"/>
<path d="M39.4418 22.8545C39.4418 15.5694 33.4991 9.66382 26.1686 9.66382L24.8721 32.1837H35.5521C37.9553 29.7965 39.4418 26.4981 39.4418 22.8545Z" fill="#D5B4DB"/>
<path d="M12.8955 22.8545C12.8955 26.4981 14.382 29.7965 16.7852 32.1837H26.1687V9.66382C18.8382 9.66382 12.8955 15.5694 12.8955 22.8545Z" fill="#E6E8E3"/>
<path d="M26.1686 14.897L24.8721 20.9218L35.5521 26.2356V21.4993L26.1686 14.897Z" fill="#36101F"/>
<path d="M16.7852 21.4993V26.2356L26.1686 20.9218V14.897L16.7852 21.4993Z" fill="#E12727"/>
<path d="M26.1686 19.6333L24.8721 27.8393L26.1686 36.0453C29.8328 36.0453 33.1502 34.5697 35.5521 32.1839V26.2358L26.1686 19.6333Z" fill="#E1AEF9"/>
<path d="M16.7852 26.2356V32.1838C19.1869 34.5696 22.5044 36.0452 26.1686 36.0452V19.6333L16.7852 26.2356Z" fill="#FFF5F5"/>
<path d="M73.9014 41V19.1818H81.6784C83.3758 19.1818 84.7821 19.4908 85.8972 20.1087C87.0122 20.7266 87.8467 21.5717 88.4007 22.6442C88.9547 23.7095 89.2317 24.9098 89.2317 26.245C89.2317 27.5874 88.9511 28.7947 88.39 29.8672C87.8361 30.9325 86.998 31.7777 85.8758 32.4027C84.7608 33.0206 83.3581 33.3295 81.6677 33.3295H76.3197V30.5384H81.3695C82.4419 30.5384 83.3119 30.3537 83.9795 29.9844C84.6472 29.608 85.1372 29.0966 85.4497 28.4503C85.7622 27.804 85.9185 27.0689 85.9185 26.245C85.9185 25.4212 85.7622 24.6896 85.4497 24.0504C85.1372 23.4112 84.6436 22.9105 83.9689 22.5483C83.3013 22.1861 82.4206 22.005 81.3268 22.005H77.1933V41H73.9014ZM93.011 41V24.6364H96.0898V27.2358H96.2603C96.5585 26.3551 97.0841 25.6626 97.837 25.1584C98.5969 24.647 99.4563 24.3913 100.415 24.3913C100.614 24.3913 100.848 24.3984 101.118 24.4126C101.395 24.4268 101.612 24.4446 101.768 24.4659V27.5128C101.64 27.4773 101.413 27.4382 101.086 27.3956C100.76 27.3459 100.433 27.321 100.106 27.321C99.3533 27.321 98.6821 27.4808 98.0926 27.8004C97.5103 28.1129 97.0486 28.5497 96.7077 29.1108C96.3668 29.6648 96.1963 30.2969 96.1963 31.0071V41H93.011ZM110.831 41.3303C109.297 41.3303 107.959 40.9787 106.815 40.2756C105.672 39.5724 104.784 38.5888 104.152 37.3246C103.52 36.0604 103.204 34.5831 103.204 32.8928C103.204 31.1953 103.52 29.7109 104.152 28.4396C104.784 27.1683 105.672 26.1811 106.815 25.478C107.959 24.7749 109.297 24.4233 110.831 24.4233C112.366 24.4233 113.704 24.7749 114.848 25.478C115.991 26.1811 116.879 27.1683 117.511 28.4396C118.143 29.7109 118.459 31.1953 118.459 32.8928C118.459 34.5831 118.143 36.0604 117.511 37.3246C116.879 38.5888 115.991 39.5724 114.848 40.2756C113.704 40.9787 112.366 41.3303 110.831 41.3303ZM110.842 38.6562C111.836 38.6562 112.66 38.3935 113.314 37.8679C113.967 37.3423 114.45 36.6428 114.763 35.7692C115.082 34.8956 115.242 33.9332 115.242 32.8821C115.242 31.8381 115.082 30.8793 114.763 30.0057C114.45 29.125 113.967 28.4183 113.314 27.8857C112.66 27.353 111.836 27.0866 110.842 27.0866C109.841 27.0866 109.01 27.353 108.349 27.8857C107.696 28.4183 107.209 29.125 106.89 30.0057C106.577 30.8793 106.421 31.8381 106.421 32.8821C106.421 33.9332 106.577 34.8956 106.89 35.7692C107.209 36.6428 107.696 37.3423 108.349 37.8679C109.01 38.3935 109.841 38.6562 110.842 38.6562ZM122.015 47.1364V24.6364H125.126V27.2891H125.392C125.577 26.9482 125.843 26.554 126.191 26.1065C126.539 25.6591 127.022 25.2685 127.64 24.9347C128.258 24.5938 129.075 24.4233 130.09 24.4233C131.411 24.4233 132.59 24.7571 133.627 25.4247C134.664 26.0923 135.477 27.0547 136.067 28.3118C136.663 29.5689 136.962 31.0817 136.962 32.8501C136.962 34.6186 136.667 36.1349 136.077 37.3991C135.488 38.6562 134.678 39.6257 133.648 40.3075C132.619 40.9822 131.443 41.3196 130.122 41.3196C129.128 41.3196 128.315 41.1527 127.682 40.8189C127.057 40.4851 126.567 40.0945 126.212 39.647C125.857 39.1996 125.584 38.8018 125.392 38.4538H125.2V47.1364H122.015ZM125.136 32.8182C125.136 33.9687 125.303 34.9773 125.637 35.8438C125.971 36.7102 126.454 37.3885 127.086 37.8786C127.718 38.3615 128.492 38.603 129.408 38.603C130.36 38.603 131.155 38.3509 131.795 37.8466C132.434 37.3352 132.917 36.6428 133.244 35.7692C133.577 34.8956 133.744 33.9119 133.744 32.8182C133.744 31.7386 133.581 30.7692 133.254 29.9098C132.935 29.0504 132.452 28.3722 131.805 27.875C131.166 27.3778 130.367 27.1293 129.408 27.1293C128.485 27.1293 127.704 27.3672 127.065 27.843C126.432 28.3189 125.953 28.983 125.626 29.8352C125.3 30.6875 125.136 31.6818 125.136 32.8182ZM140.53 41V24.6364H143.716V41H140.53ZM142.139 22.1115C141.585 22.1115 141.109 21.9268 140.712 21.5575C140.321 21.1811 140.126 20.7337 140.126 20.2152C140.126 19.6896 140.321 19.2422 140.712 18.8729C141.109 18.4964 141.585 18.3082 142.139 18.3082C142.693 18.3082 143.165 18.4964 143.556 18.8729C143.954 19.2422 144.153 19.6896 144.153 20.2152C144.153 20.7337 143.954 21.1811 143.556 21.5575C143.165 21.9268 142.693 22.1115 142.139 22.1115ZM148.001 41V24.6364H151.187V41H148.001ZM149.61 22.1115C149.056 22.1115 148.58 21.9268 148.182 21.5575C147.792 21.1811 147.596 20.7337 147.596 20.2152C147.596 19.6896 147.792 19.2422 148.182 18.8729C148.58 18.4964 149.056 18.3082 149.61 18.3082C150.164 18.3082 150.636 18.4964 151.027 18.8729C151.424 19.2422 151.623 19.6896 151.623 20.2152C151.623 20.7337 151.424 21.1811 151.027 21.5575C150.636 21.9268 150.164 22.1115 149.61 22.1115ZM167.734 28.6314L164.847 29.1428C164.726 28.7734 164.534 28.4219 164.272 28.0881C164.016 27.7543 163.668 27.4808 163.228 27.2678C162.787 27.0547 162.237 26.9482 161.576 26.9482C160.674 26.9482 159.921 27.1506 159.318 27.5554C158.714 27.9531 158.412 28.468 158.412 29.1001C158.412 29.647 158.615 30.0874 159.019 30.4212C159.424 30.755 160.078 31.0284 160.98 31.2415L163.579 31.8381C165.085 32.1861 166.207 32.7223 166.946 33.4467C167.684 34.1712 168.054 35.1122 168.054 36.2699C168.054 37.25 167.769 38.1236 167.201 38.8906C166.64 39.6506 165.855 40.2472 164.847 40.6804C163.845 41.1136 162.684 41.3303 161.363 41.3303C159.531 41.3303 158.036 40.9396 156.878 40.1584C155.72 39.37 155.01 38.2514 154.747 36.8026L157.826 36.3338C158.018 37.1364 158.412 37.7436 159.009 38.1555C159.605 38.5604 160.383 38.7628 161.342 38.7628C162.386 38.7628 163.22 38.5462 163.845 38.1129C164.47 37.6726 164.783 37.1364 164.783 36.5043C164.783 35.9929 164.591 35.5632 164.208 35.2152C163.831 34.8672 163.252 34.6044 162.471 34.4268L159.701 33.8196C158.174 33.4716 157.045 32.9176 156.314 32.1577C155.589 31.3977 155.227 30.4354 155.227 29.2706C155.227 28.3047 155.497 27.4595 156.037 26.7351C156.576 26.0107 157.322 25.446 158.274 25.0412C159.225 24.6293 160.316 24.4233 161.544 24.4233C163.313 24.4233 164.705 24.8068 165.72 25.5739C166.736 26.3338 167.407 27.353 167.734 28.6314Z" fill="#212529"/>
<defs>
<filter id="filter0_dd_805_144" x="0.766198" y="48.1415" width="48.4124" height="19.6132" filterUnits="userSpaceOnUse" color-interpolation-filters="sRGB">
<feFlood flood-opacity="0" result="BackgroundImageFix"/>
<feColorMatrix in="SourceAlpha" type="matrix" values="0 0 0 0 0 0 0 0 0 0 0 0 0 0 0 0 0 0 127 0" result="hardAlpha"/>
<feOffset dy="2.37736"/>
<feGaussianBlur stdDeviation="1.18868"/>
<feColorMatrix type="matrix" values="0 0 0 0 0 0 0 0 0 0 0 0 0 0 0 0 0 0 0.25 0"/>
<feBlend mode="normal" in2="BackgroundImageFix" result="effect1_dropShadow_805_144"/>
<feColorMatrix in="SourceAlpha" type="matrix" values="0 0 0 0 0 0 0 0 0 0 0 0 0 0 0 0 0 0 127 0" result="hardAlpha"/>
<feOffset dy="2.37736"/>
<feGaussianBlur stdDeviation="1.18868"/>
<feColorMatrix type="matrix" values="0 0 0 0 0 0 0 0 0 0 0 0 0 0 0 0 0 0 0.25 0"/>
<feBlend mode="normal" in2="effect1_dropShadow_805_144" result="effect2_dropShadow_805_144"/>
<feBlend mode="normal" in="SourceGraphic" in2="effect2_dropShadow_805_144" result="shape"/>
</filter>
<filter id="filter1_d_805_144" x="22.4947" y="0" width="29.0487" height="59.9305" filterUnits="userSpaceOnUse" color-interpolation-filters="sRGB">
<feFlood flood-opacity="0" result="BackgroundImageFix"/>
<feColorMatrix in="SourceAlpha" type="matrix" values="0 0 0 0 0 0 0 0 0 0 0 0 0 0 0 0 0 0 127 0" result="hardAlpha"/>
<feOffset dy="2.37736"/>
<feGaussianBlur stdDeviation="1.18868"/>
<feColorMatrix type="matrix" values="0 0 0 0 0 0 0 0 0 0 0 0 0 0 0 0 0 0 0.25 0"/>
<feBlend mode="normal" in2="BackgroundImageFix" result="effect1_dropShadow_805_144"/>
<feBlend mode="normal" in="SourceGraphic" in2="effect1_dropShadow_805_144" result="shape"/>
</filter>
<filter id="filter2_d_805_144" x="0.79403" y="0" width="27.7523" height="59.9304" filterUnits="userSpaceOnUse" color-interpolation-filters="sRGB">
<feFlood flood-opacity="0" result="BackgroundImageFix"/>
<feColorMatrix in="SourceAlpha" type="matrix" values="0 0 0 0 0 0 0 0 0 0 0 0 0 0 0 0 0 0 127 0" result="hardAlpha"/>
<feOffset dy="2.37736"/>
<feGaussianBlur stdDeviation="1.18868"/>
<feColorMatrix type="matrix" values="0 0 0 0 0 0 0 0 0 0 0 0 0 0 0 0 0 0 0.25 0"/>
<feBlend mode="normal" in2="BackgroundImageFix" result="effect1_dropShadow_805_144"/>
<feBlend mode="normal" in="SourceGraphic" in2="effect1_dropShadow_805_144" result="shape"/>
</filter>
</defs>
</svg>
