
<svg width="172" height="68" viewBox="0 0 172 68" fill="none" xmlns="http://www.w3.org/2000/svg">
<g filter="url(#filter0_dd_719_166)">
<path d="M42.7519 50.822C40.6286 49.6929 37.6479 48.766 34.132 48.1416H23.3191L22.0186 56.7146L23.3191 63.0001C36.2539 63.0001 46.3865 59.5401 46.3865 55.1232C46.3865 53.5738 45.1296 52.0865 42.7519 50.822Z" fill="#9DA394"/>
<path d="M14.998 48.1416C11.5556 48.766 8.63731 49.6929 6.55838 50.822C4.23052 52.0865 3 53.5738 3 55.1232C3 59.5401 12.9205 63.0001 25.5849 63.0001V48.1416H14.998Z" fill="#DFE1DC"/>
</g>
<g filter="url(#filter1_d_719_166)">
<path d="M25.8823 0L24.5938 19.6333L25.8823 55.1757L42.0423 39.0157C46.3592 34.699 48.7367 28.9595 48.7367 22.8547C48.7368 10.2524 38.4843 0 25.8823 0Z" fill="#296998"/>
</g>
<g filter="url(#filter2_d_719_166)">
<path d="M3.02734 22.8545C3.02734 28.9596 5.40503 34.6993 9.72218 39.0159L25.8819 55.1756V0C13.2799 0 3.02734 10.2524 3.02734 22.8545Z" fill="#49A5E8"/>
</g>
<path d="M37.9428 10.794C34.7213 7.57249 30.4382 5.79834 25.8823 5.79834L24.5938 19.6333L25.8823 39.9108C30.4382 39.9108 34.7213 38.1367 37.9428 34.9152C41.1644 31.6936 42.9385 27.4105 42.9385 22.8546C42.9385 18.2987 41.1644 14.0155 37.9428 10.794Z" fill="#173959"/>
<path d="M13.8214 10.794C10.5998 14.0155 8.82568 18.2987 8.82568 22.8546C8.82568 27.4105 10.5998 31.6936 13.8214 34.9152C17.0429 38.1367 21.326 39.9108 25.8819 39.9108V5.79834C21.326 5.79834 17.0429 7.57249 13.8214 10.794Z" fill="#6E8BC6"/>
<path d="M39.073 22.8545C39.073 15.5694 33.1672 9.66382 25.8823 9.66382L24.5938 32.1837H35.2075C37.5957 29.7965 39.073 26.4981 39.073 22.8545Z" fill="#D5B4DB"/>
<path d="M12.6914 22.8545C12.6914 26.4981 14.1687 29.7965 16.5569 32.1837H25.8821V9.66382C18.5972 9.66382 12.6914 15.5694 12.6914 22.8545Z" fill="#E6E8E3"/>
<path d="M25.8823 14.897L24.5938 20.9218L35.2075 26.2356V21.4993L25.8823 14.897Z" fill="#36101F"/>
<path d="M16.5566 21.4993V26.2356L25.8818 20.9218V14.897L16.5566 21.4993Z" fill="#E12727"/>
<path d="M25.8823 19.6333L24.5938 27.8393L25.8823 36.0453C29.5237 36.0453 32.8205 34.5697 35.2075 32.1839V26.2358L25.8823 19.6333Z" fill="#E1AEF9"/>
<path d="M16.5566 26.2356V32.1838C18.9435 34.5696 22.2404 36.0452 25.8818 36.0452V19.6333L16.5566 26.2356Z" fill="#FFF5F5"/>
<path d="M73.0298 41V19.1818H80.8068C82.5043 19.1818 83.9105 19.4908 85.0256 20.1087C86.1406 20.7266 86.9751 21.5717 87.5291 22.6442C88.0831 23.7095 88.3601 24.9098 88.3601 26.245C88.3601 27.5874 88.0795 28.7947 87.5185 29.8672C86.9645 30.9325 86.1264 31.7777 85.0043 32.4027C83.8892 33.0206 82.4865 33.3295 80.7962 33.3295H75.4482V30.5384H80.4979C81.5703 30.5384 82.4403 30.3537 83.108 29.9844C83.7756 29.608 84.2656 29.0966 84.5781 28.4503C84.8906 27.804 85.0469 27.0689 85.0469 26.245C85.0469 25.4212 84.8906 24.6896 84.5781 24.0504C84.2656 23.4112 83.772 22.9105 83.0973 22.5483C82.4297 22.1861 81.549 22.005 80.4553 22.005H76.3217V41H73.0298ZM92.1394 41V24.6364H95.2182V27.2358H95.3887C95.687 26.3551 96.2125 25.6626 96.9654 25.1584C97.7253 24.647 98.5847 24.3913 99.5435 24.3913C99.7424 24.3913 99.9767 24.3984 100.247 24.4126C100.524 24.4268 100.74 24.4446 100.896 24.4659V27.5128C100.769 27.4773 100.541 27.4382 100.215 27.3956C99.888 27.3459 99.5613 27.321 99.2346 27.321C98.4817 27.321 97.8105 27.4808 97.2211 27.8004C96.6387 28.1129 96.177 28.5497 95.8361 29.1108C95.4952 29.6648 95.3248 30.2969 95.3248 31.0071V41H92.1394ZM109.96 41.3303C108.426 41.3303 107.087 40.9787 105.944 40.2756C104.8 39.5724 103.912 38.5888 103.28 37.3246C102.648 36.0604 102.332 34.5831 102.332 32.8928C102.332 31.1953 102.648 29.7109 103.28 28.4396C103.912 27.1683 104.8 26.1811 105.944 25.478C107.087 24.7749 108.426 24.4233 109.96 24.4233C111.494 24.4233 112.833 24.7749 113.976 25.478C115.12 26.1811 116.007 27.1683 116.64 28.4396C117.272 29.7109 117.588 31.1953 117.588 32.8928C117.588 34.5831 117.272 36.0604 116.64 37.3246C116.007 38.5888 115.12 39.5724 113.976 40.2756C112.833 40.9787 111.494 41.3303 109.96 41.3303ZM109.971 38.6562C110.965 38.6562 111.789 38.3935 112.442 37.8679C113.096 37.3423 113.578 36.6428 113.891 35.7692C114.211 34.8956 114.37 33.9332 114.37 32.8821C114.37 31.8381 114.211 30.8793 113.891 30.0057C113.578 29.125 113.096 28.4183 112.442 27.8857C111.789 27.353 110.965 27.0866 109.971 27.0866C108.969 27.0866 108.138 27.353 107.478 27.8857C106.824 28.4183 106.338 29.125 106.018 30.0057C105.706 30.8793 105.549 31.8381 105.549 32.8821C105.549 33.9332 105.706 34.8956 106.018 35.7692C106.338 36.6428 106.824 37.3423 107.478 37.8679C108.138 38.3935 108.969 38.6562 109.971 38.6562ZM121.143 47.1364V24.6364H124.254V27.2891H124.52C124.705 26.9482 124.971 26.554 125.319 26.1065C125.667 25.6591 126.15 25.2685 126.768 24.9347C127.386 24.5938 128.203 24.4233 129.219 24.4233C130.54 24.4233 131.719 24.7571 132.756 25.4247C133.792 26.0923 134.606 27.0547 135.195 28.3118C135.792 29.5689 136.09 31.0817 136.09 32.8501C136.09 34.6186 135.795 36.1349 135.206 37.3991C134.616 38.6562 133.807 39.6257 132.777 40.3075C131.747 40.9822 130.572 41.3196 129.251 41.3196C128.256 41.3196 127.443 41.1527 126.811 40.8189C126.186 40.4851 125.696 40.0945 125.341 39.647C124.986 39.1996 124.712 38.8018 124.52 38.4538H124.329V47.1364H121.143ZM124.265 32.8182C124.265 33.9687 124.432 34.9773 124.765 35.8438C125.099 36.7102 125.582 37.3885 126.214 37.8786C126.846 38.3615 127.621 38.603 128.537 38.603C129.488 38.603 130.284 38.3509 130.923 37.8466C131.562 37.3352 132.045 36.6428 132.372 35.7692C132.706 34.8956 132.873 33.9119 132.873 32.8182C132.873 31.7386 132.709 30.7692 132.383 29.9098C132.063 29.0504 131.58 28.3722 130.934 27.875C130.295 27.3778 129.496 27.1293 128.537 27.1293C127.613 27.1293 126.832 27.3672 126.193 27.843C125.561 28.3189 125.081 28.983 124.755 29.8352C124.428 30.6875 124.265 31.6818 124.265 32.8182ZM139.659 41V24.6364H142.844V41H139.659ZM141.268 22.1115C140.714 22.1115 140.238 21.9268 139.84 21.5575C139.449 21.1811 139.254 20.7337 139.254 20.2152C139.254 19.6896 139.449 19.2422 139.84 18.8729C140.238 18.4964 140.714 18.3082 141.268 18.3082C141.822 18.3082 142.294 18.4964 142.684 18.8729C143.082 19.2422 143.281 19.6896 143.281 20.2152C143.281 20.7337 143.082 21.1811 142.684 21.5575C142.294 21.9268 141.822 22.1115 141.268 22.1115ZM147.13 41V24.6364H150.315V41H147.13ZM148.738 22.1115C148.184 22.1115 147.708 21.9268 147.311 21.5575C146.92 21.1811 146.725 20.7337 146.725 20.2152C146.725 19.6896 146.92 19.2422 147.311 18.8729C147.708 18.4964 148.184 18.3082 148.738 18.3082C149.292 18.3082 149.765 18.4964 150.155 18.8729C150.553 19.2422 150.752 19.6896 150.752 20.2152C150.752 20.7337 150.553 21.1811 150.155 21.5575C149.765 21.9268 149.292 22.1115 148.738 22.1115ZM166.862 28.6314L163.975 29.1428C163.855 28.7734 163.663 28.4219 163.4 28.0881C163.144 27.7543 162.796 27.4808 162.356 27.2678C161.916 27.0547 161.365 26.9482 160.705 26.9482C159.803 26.9482 159.05 27.1506 158.446 27.5554C157.843 27.9531 157.541 28.468 157.541 29.1001C157.541 29.647 157.743 30.0874 158.148 30.4212C158.553 30.755 159.206 31.0284 160.108 31.2415L162.708 31.8381C164.213 32.1861 165.335 32.7223 166.074 33.4467C166.813 34.1712 167.182 35.1122 167.182 36.2699C167.182 37.25 166.898 38.1236 166.33 38.8906C165.769 39.6506 164.984 40.2472 163.975 40.6804C162.974 41.1136 161.813 41.3303 160.492 41.3303C158.659 41.3303 157.164 40.9396 156.007 40.1584C154.849 39.37 154.139 38.2514 153.876 36.8026L156.955 36.3338C157.146 37.1364 157.541 37.7436 158.137 38.1555C158.734 38.5604 159.512 38.7628 160.47 38.7628C161.514 38.7628 162.349 38.5462 162.974 38.1129C163.599 37.6726 163.911 37.1364 163.911 36.5043C163.911 35.9929 163.72 35.5632 163.336 35.2152C162.96 34.8672 162.381 34.6044 161.6 34.4268L158.83 33.8196C157.303 33.4716 156.173 32.9176 155.442 32.1577C154.718 31.3977 154.355 30.4354 154.355 29.2706C154.355 28.3047 154.625 27.4595 155.165 26.7351C155.705 26.0107 156.45 25.446 157.402 25.0412C158.354 24.6293 159.444 24.4233 160.673 24.4233C162.441 24.4233 163.833 24.8068 164.849 25.5739C165.865 26.3338 166.536 27.353 166.862 28.6314Z" fill="white"/>
<defs>
<filter id="filter0_dd_719_166" x="0.622643" y="48.1416" width="48.1409" height="19.6131" filterUnits="userSpaceOnUse" color-interpolation-filters="sRGB">

<feFlood flood-opacity="0" result="BackgroundImageFix"/>
<feColorMatrix in="SourceAlpha" type="matrix" values="0 0 0 0 0 0 0 0 0 0 0 0 0 0 0 0 0 0 127 0" result="hardAlpha"/>
<feOffset dy="2.37736"/>
<feGaussianBlur stdDeviation="1.18868"/>
<feColorMatrix type="matrix" values="0 0 0 0 0 0 0 0 0 0 0 0 0 0 0 0 0 0 0.25 0"/>

<feBlend mode="normal" in2="BackgroundImageFix" result="effect1_dropShadow_719_166"/>

<feColorMatrix in="SourceAlpha" type="matrix" values="0 0 0 0 0 0 0 0 0 0 0 0 0 0 0 0 0 0 127 0" result="hardAlpha"/>
<feOffset dy="2.37736"/>
<feGaussianBlur stdDeviation="1.18868"/>
<feColorMatrix type="matrix" values="0 0 0 0 0 0 0 0 0 0 0 0 0 0 0 0 0 0 0.25 0"/>

<feBlend mode="normal" in2="effect1_dropShadow_719_166" result="effect2_dropShadow_719_166"/>
<feBlend mode="normal" in="SourceGraphic" in2="effect2_dropShadow_719_166" result="shape"/>
</filter>
<filter id="filter1_d_719_166" x="22.2164" y="0" width="28.8978" height="59.9305" filterUnits="userSpaceOnUse" color-interpolation-filters="sRGB">

<feFlood flood-opacity="0" result="BackgroundImageFix"/>
<feColorMatrix in="SourceAlpha" type="matrix" values="0 0 0 0 0 0 0 0 0 0 0 0 0 0 0 0 0 0 127 0" result="hardAlpha"/>
<feOffset dy="2.37736"/>
<feGaussianBlur stdDeviation="1.18868"/>
<feColorMatrix type="matrix" values="0 0 0 0 0 0 0 0 0 0 0 0 0 0 0 0 0 0 0.25 0"/>

<feBlend mode="normal" in2="BackgroundImageFix" result="effect1_dropShadow_719_166"/>
<feBlend mode="normal" in="SourceGraphic" in2="effect1_dropShadow_719_166" result="shape"/>
</filter>
<filter id="filter2_d_719_166" x="0.649987" y="0" width="27.6092" height="59.9303" filterUnits="userSpaceOnUse" color-interpolation-filters="sRGB">

<feFlood flood-opacity="0" result="BackgroundImageFix"/>
<feColorMatrix in="SourceAlpha" type="matrix" values="0 0 0 0 0 0 0 0 0 0 0 0 0 0 0 0 0 0 127 0" result="hardAlpha"/>
<feOffset dy="2.37736"/>
<feGaussianBlur stdDeviation="1.18868"/>
<feColorMatrix type="matrix" values="0 0 0 0 0 0 0 0 0 0 0 0 0 0 0 0 0 0 0.25 0"/>

<feBlend mode="normal" in2="BackgroundImageFix" result="effect1_dropShadow_719_166"/>
<feBlend mode="normal" in="SourceGraphic" in2="effect1_dropShadow_719_166" result="shape"/>

</filter>
</defs>
</svg>
