<svg width="72" height="71" viewBox="0 0 72 71" fill="none" xmlns="http://www.w3.org/2000/svg">
<path d="M36 5.91663C19.44 5.91663 6 19.17 6 35.5C6 51.83 19.44 65.0833 36 65.0833C52.56 65.0833 66 51.83 66 35.5C66 19.17 52.56 5.91663 36 5.91663ZM36 14.7916C40.98 14.7916 45 18.7558 45 23.6666C45 28.5775 40.98 32.5416 36 32.5416C31.02 32.5416 27 28.5775 27 23.6666C27 18.7558 31.02 14.7916 36 14.7916ZM36 56.8C28.5 56.8 21.87 53.0133 18 47.2741C18.09 41.387 30 38.1625 36 38.1625C41.97 38.1625 53.91 41.387 54 47.2741C50.13 53.0133 43.5 56.8 36 56.8Z" fill="#515050"/>
</svg>
